<?xml version="1.0" standalone="no"?>
<!DOCTYPE svg PUBLIC "-//W3C//DTD SVG 20010904//EN"
 "http://www.w3.org/TR/2001/REC-SVG-20010904/DTD/svg10.dtd">
<svg version="1.0" xmlns="http://www.w3.org/2000/svg"
 width="1280.000000pt" height="1280.000000pt" viewBox="0 0 1280.000000 1280.000000"
 preserveAspectRatio="xMidYMid meet">

<g transform="translate(0.000000,1280.000000) scale(0.100000,-0.100000)"
fill="#000000" stroke="none">
<path d="M5460 9683 c-555 -23 -948 -101 -1241 -248 -137 -69 -234 -139 -340
-244 -294 -294 -435 -707 -491 -1436 -16 -210 -16 -974 1 -1170 49 -605 147
-960 344 -1255 62 -93 229 -260 322 -321 267 -177 610 -278 1097 -325 114 -11
333 -17 730 -21 l566 -6 6 -101 c25 -389 76 -625 182 -839 167 -337 427 -520
829 -582 140 -22 513 -30 725 -16 453 31 719 124 920 323 223 221 335 602 317
1078 -25 664 -301 1036 -873 1181 -247 62 -510 78 -1270 79 -412 0 -529 3
-600 15 -424 73 -645 322 -714 805 -14 98 -14 441 0 556 56 452 217 704 492
769 163 38 337 4 462 -89 218 -164 326 -490 330 -991 0 -115 -3 -265 -7 -332
l-8 -123 419 0 419 0 7 58 c42 392 42 1091 1 1488 -105 1008 -449 1461 -1255
1654 -317 75 -879 114 -1370 93z m518 -258 c710 -37 1068 -374 1208 -1138 14
-76 23 -141 21 -144 -3 -2 -41 2 -84 11 -243 49 -769 47 -1071 -4 -209 -36
-386 -105 -528 -205 -200 -142 -329 -377 -390 -710 -26 -142 -27 -586 -1 -725
26 -136 62 -252 113 -353 174 -351 484 -537 1014 -608 51 -7 371 -14 800 -19
768 -8 798 -10 955 -63 398 -136 584 -505 562 -1112 -7 -186 -20 -295 -49
-420 -90 -390 -318 -595 -632 -570 -315 24 -507 256 -589 710 -19 106 -22 156
-22 435 0 173 3 334 8 358 l7 42 -782 0 c-801 0 -1055 8 -1213 35 -550 94
-826 371 -975 978 -126 512 -149 1571 -49 2247 114 768 408 1127 1008 1231
122 21 388 38 506 33 39 -2 121 -6 183 -9z"/>
</g>
</svg>
